<svg id="Capa_1" enable-background="new 0 0 512 512" height="512" viewBox="0 0 512 512" width="512" xmlns="http://www.w3.org/2000/svg"><g><path d="m487 192.8h-39.267v-17.133c0-97.964-95.56-175.667-191.733-175.667-96.001 0-191.733 77.526-191.733 175.667v17.133h-39.267c-13.785 0-25 11.215-25 25v108.533c0 13.785 11.215 25 25 25h39.27v31.487c0 53.514 43.532 97.05 97.04 97.05h39.523v7.13c0 13.785 11.215 25 25 25h60.334c13.785 0 25-11.215 25-25v-44.267c0-13.785-11.215-25-25-25h-60.334c-13.785 0-25 11.215-25 25v7.137h-39.523c-36.966 0-67.04-30.078-67.04-67.05v-7.387h39.264c13.785 0 25-11.215 25-25v-156.733c0-13.785-11.215-25-25-25h-39.05c4.503-73.448 79.457-138.7 161.516-138.7s157.013 65.252 161.517 138.7h-39.05c-13.785 0-25 11.215-25 25v156.733c0 13.785 11.215 25 25 25h44.267c13.483 0 24.501-10.731 24.977-24.101h39.289c13.785 0 25-11.215 25-25v-108.532c0-13.785-11.215-25-25-25zm-256.167 254.933h50.334v34.267h-50.334zm-200.833-224.933h34.267v98.533h-34.267zm98.533 122.634h-34.263c0-44.058-.003-102.35-.003-146.733h34.267v146.733zm289.2 0h-34.267v-146.734h34.267zm64.267-24.101h-34.267c0-9.195 0-85.355 0-98.533h34.267z"/></g></svg>