<svg id="Capa_1" enable-background="new 0 0 512 512" height="512" viewBox="0 0 512 512" width="512" xmlns="http://www.w3.org/2000/svg"><g><path d="m355.992 194.546c0-38.984-22.429-72.824-55.06-89.307 37.583-39.41 9.707-105.239-44.981-105.239-54.721 0-82.57 65.878-44.95 105.271-32.594 16.494-54.993 50.316-54.993 89.275v35.076h199.984zm-100.041-164.546c17.765 0 32.218 14.48 32.218 32.279s-14.453 32.279-32.218 32.279-32.218-14.48-32.218-32.279 14.454-32.279 32.218-32.279zm70.041 169.622h-139.984v-5.076c0-38.591 31.396-69.988 69.997-69.988 38.591 0 69.987 31.396 69.987 69.988z"/><path d="m456.261 387.279c37.198-39.59 9.021-104.901-45.303-104.901-54.918 0-82.712 66.325-44.625 105.613-32.229 16.618-54.318 50.243-54.318 88.933v35.076h199.985v-35.076c0-39.254-22.74-73.291-55.739-89.645zm-45.303-74.901c17.766 0 32.219 14.48 32.219 32.279s-14.453 32.279-32.219 32.279c-17.765 0-32.218-14.48-32.218-32.279s14.453-32.279 32.218-32.279zm71.042 169.622h-139.984v-5.076c0-38.592 31.396-69.988 69.996-69.988 38.592 0 69.988 31.396 69.988 69.988z"/><path d="m144.246 387.279c37.194-39.586 9.03-104.901-45.302-104.901-54.917 0-82.712 66.325-44.625 105.612-32.229 16.618-54.319 50.244-54.319 88.934v35.076h199.984v-35.076c0-39.254-22.74-73.29-55.738-89.645zm-45.303-74.901c17.765 0 32.218 14.48 32.218 32.279s-14.453 32.279-32.218 32.279-32.218-14.48-32.218-32.279 14.454-32.279 32.218-32.279zm71.041 169.622h-139.984v-5.076c0-38.592 31.396-69.988 69.997-69.988 38.591 0 69.987 31.396 69.987 69.988z"/><path d="m293.382 357.394c-26.069 26.069-48.714 26.074-74.787 0l-21.213 21.213c37.039 37.039 78.522 38.691 117.213 0z"/><path d="m127.897 166.146v-30c-52.27 0-82.883 28.055-82.883 82.882h30c.001-36.867 16.008-52.882 52.883-52.882z"/><path d="m437.845 218.98h30c0-52.378-28.164-82.882-82.882-82.882v30c36.868 0 52.882 16.009 52.882 52.882z"/></g></svg>