<svg id="Capa_1" enable-background="new 0 0 512.323 512.323" height="512" viewBox="0 0 512.323 512.323" width="512" xmlns="http://www.w3.org/2000/svg"><g><path d="m512.323 106.402-106.401-106.401c-40.814 40.814-331.807 331.802-359.377 359.372l-46.545 152.95 152.951-46.544c26.547-26.548 319.022-319.027 359.372-359.377zm-431.306 260.926 41.447-41.447 15.996 47.986 47.982 15.994-41.446 41.446zm75.857-33.088-10.692-32.077 163.855-163.855 21.385 21.384zm313.023-227.838-21.43 21.43-63.975-63.975 21.429-21.429zm-106.617-21.333 63.975 63.975-32.028 32.028c-12.254-12.254-34.308-34.307-63.975-63.975zm-296.404 310.543 49.836 49.836-71.635 21.799zm143.283-29.468-32.072-10.691 174.547-174.547 21.382 21.382z"/></g></svg>